<?xml version="1.0" encoding="utf-8"?>
<svg xmlns="http://www.w3.org/2000/svg"
	xmlns:xlink="http://www.w3.org/1999/xlink"
	width="18px" height="23px" viewBox="0 0 18 23">
<path fillRule="evenodd" d="M 16.32 5.06C 15.69 5.73 14.87 6.34 13.9 6.89 14.07 7.28 14 7.56 14 8 14 8 14 14 14 14 14 14 13.84 14.01 13.84 14.01 13.84 14.01 12 14 12 14 12 14 11 14 11 14 11 14 11 16 11 16 11 16 11 17 11 17 11 17 9.91 17.01 9.91 17.01 9.91 17.01 8 17 8 17 8 17 8 18 8 18 8 18 8 20 8 20 8 20 8 21 8 21 8 21 2 21 2 21 0.66 21 0 20.36 0 19 0 19 0 8 0 8 0 7.16 0.2 6.47 0.81 5.87 0.81 5.87 5.33 1.4 5.33 1.4 6.25 0.49 7.73 0.49 8.65 1.4 8.65 1.4 8.68 1.43 8.68 1.43 8.97 1.28 9.26 1.16 9.55 1.03 11.18 0.37 12.8-0 14.19-0 14.21-0 14.24-0 14.26-0 16.52-0 17.25 1.01 17.49 1.6 17.73 2.19 17.9 3.43 16.32 5.06ZM 15.81 2.29C 15.74 2.12 15.33 1.82 14.26 1.82 14.24 1.82 14.24 1.82 14.21 1.82 13.1 1.82 11.66 2.17 10.28 2.74 10.23 2.76 10.18 2.79 10.13 2.81 10.13 2.81 11.95 4.61 11.95 4.61 11.69 4.74 11.4 4.89 11.08 5.01 10.21 5.38 9.28 5.65 8.46 5.8 8.12 5.36 7.58 5.06 7 5.06 6.01 5.06 5.21 5.9 5.21 6.89 5.21 7.9 6.01 8.71 7 8.71 8 8.71 8.8 7.9 8.8 6.89 8.8 6.84 8.8 6.81 8.8 6.76 9.67 6.61 10.64 6.34 11.59 5.95 14.79 4.59 16.01 2.76 15.81 2.29ZM 12 15C 12 15 14 15 14 15 14 15 14 18 14 18 14 18 14.16 18.01 14.16 18.01 14.16 18.01 17 18 17 18 17 18 17 20 17 20 17 20 14 20 14 20 14 20 14 23 14 23 14 23 12 23 12 23 12 23 12 21 12 21 12 21 12 20 12 20 12 20 9 20 9 20 9 20 9 18 9 18 9 18 12 18 12 18 12 18 12 15 12 15Z" fill="rgb(103,83,163)"/></svg>