<?xml version="1.0" encoding="utf-8"?>
<svg xmlns="http://www.w3.org/2000/svg"
	xmlns:xlink="http://www.w3.org/1999/xlink"
	width="20px" height="20px" viewBox="0 0 20 20">
<path fillRule="evenodd" d="M 18.25-0C 18.25-0 1.75-0 1.75-0 0.78-0-0 0.78-0 1.75-0 1.75-0 18.25-0 18.25-0 19.22 0.78 20 1.75 20 1.75 20 18.25 20 18.25 20 19.22 20 20 19.22 20 18.25 20 18.25 20 1.75 20 1.75 20 0.78 19.22-0 18.25-0ZM 13.69 13.69C 13.29 14.09 12.64 14.09 12.24 13.69 12.24 13.69 9.99 11.44 9.99 11.44 9.99 11.44 7.75 13.69 7.75 13.69 7.34 14.09 6.69 14.09 6.29 13.69 5.89 13.29 5.89 12.64 6.29 12.24 6.29 12.24 8.54 9.99 8.54 9.99 8.54 9.99 6.29 7.75 6.29 7.75 5.89 7.34 5.89 6.69 6.29 6.29 6.69 5.89 7.34 5.89 7.75 6.29 7.75 6.29 9.99 8.54 9.99 8.54 9.99 8.54 12.24 6.29 12.24 6.29 12.64 5.89 13.29 5.89 13.69 6.29 14.09 6.69 14.09 7.34 13.69 7.75 13.69 7.75 11.44 9.99 11.44 9.99 11.44 9.99 13.69 12.24 13.69 12.24 14.09 12.64 14.09 13.29 13.69 13.69Z" fill="rgb(119,103,173)"/></svg>