<?xml version="1.0" encoding="utf-8"?>
<svg xmlns="http://www.w3.org/2000/svg"
	xmlns:xlink="http://www.w3.org/1999/xlink"
	width="13px" height="16px" viewBox="0 0 13 16">
<path fillRule="evenodd" d="M 13 2C 13 2 9 2 9 2 9 2 9 1 9 1 9.01-0.01 9.01-0.03 8-0 8-0 5-0 5-0 4.05-0 4 0.05 4 1 4 1 4 2 4 2 4 2-0 2-0 2-0 2-0 3-0 3-0 3 1 3 1 3 1 3 1 15 1 15 1.01 15.28 1.05 16 1 16 1 16 12 16 12 16 11.98 16 11.98 15.28 12 15 12 15 12 3 12 3 12 3 13 3 13 3 13 3 13 2 13 2ZM 5 1C 5 1 8 1 8 1 8 1 8 2 8 2 8 2 5 2 5 2 5 2 5 1 5 1ZM 11 15C 11 15 2 15 2 15 2 15 2 3 2 3 2 3 11 3 11 3 11 3 11 15 11 15ZM 5 13C 5 13 5 5 5 5 5 5 4 5 4 5 4 5 4 13 4 13 4 13 5 13 5 13ZM 9 13C 9 13 9 5 9 5 9 5 8 5 8 5 8 5 8 13 8 13 8 13 9 13 9 13ZM 7 13C 7 13 7 5 7 5 7 5 6 5 6 5 6 5 6 13 6 13 6 13 7 13 7 13Z" fill="rgb(15,15,55)"/></svg>