<?xml version="1.0" encoding="utf-8"?>
<svg xmlns="http://www.w3.org/2000/svg"
	xmlns:xlink="http://www.w3.org/1999/xlink"
	width="20px" height="20px" viewBox="0 0 20 20">
<path fillRule="evenodd" d="M 18.75 20C 19.44 20 20 19.44 20 18.75 20 18.75 20 1.25 20 1.25 20 0.56 19.44-0 18.75-0 18.75-0 1.25-0 1.25-0 0.56-0-0 0.56-0 1.25-0 1.25-0 18.75-0 18.75-0 19.44 0.56 20 1.25 20 1.25 20 18.75 20 18.75 20ZM 9.1 14.66C 8.63 14.19 8.63 13.44 9.1 12.97 9.1 12.97 11.07 11.25 11.07 11.25 11.07 11.25 6.25 11.25 6.25 11.25 5.56 11.25 5 10.69 5 10 5 9.31 5.56 8.75 6.25 8.75 6.25 8.75 11.06 8.75 11.06 8.75 11.06 8.75 9.1 7.04 9.1 7.04 8.63 6.57 8.63 5.82 9.1 5.35 9.57 4.89 10.33 4.89 10.8 5.35 10.8 5.35 14.65 9.16 14.65 9.16 15.12 9.63 15.12 10.39 14.65 10.85 14.65 10.85 10.8 14.66 10.8 14.66 10.33 15.13 9.57 15.13 9.1 14.66Z" fill="rgb(119,104,173)"/></svg>