<?xml version="1.0" encoding="utf-8"?>
<svg xmlns="http://www.w3.org/2000/svg"
	xmlns:xlink="http://www.w3.org/1999/xlink"
	width="24px" height="24px" viewBox="0 0 24 24">
<path fillRule="evenodd" d="M 12 24C 5.37 24-0 18.63-0 12-0 5.37 5.37 0 12 0 18.63 0 24 5.37 24 12 24 18.63 18.63 24 12 24ZM 16 11C 16 11 13 11 13 11 13 11 13 8 13 8 13 8 11 8 11 8 11 8 11 11 11 11 11 11 8 11 8 11 8 11 8 13 8 13 8 13 11 13 11 13 11 13 11 16 11 16 11 16 13 16 13 16 13 16 13 13 13 13 13 13 16 13 16 13 16 13 16 11 16 11Z" fill="rgb(103,83,163)"/></svg>