<?xml version="1.0" encoding="utf-8"?>
<svg xmlns="http://www.w3.org/2000/svg"
	xmlns:xlink="http://www.w3.org/1999/xlink"
	width="20px" height="20px" viewBox="0 0 20 20">
<path fillRule="evenodd" d="M 18.75 0C 18.75 0 1.25 0 1.25 0 0.56 0 0 0.56 0 1.25 0 1.25 0 18.75 0 18.75 0 19.44 0.56 20 1.25 20 1.25 20 18.75 20 18.75 20 19.44 20 20 19.44 20 18.75 20 18.75 20 1.25 20 1.25 20 0.56 19.44 0 18.75 0ZM 8.75 13.75C 8.75 13.75 5 10 5 10 5 10 6.87 8.13 6.87 8.13 6.87 8.13 8.75 10 8.75 10 8.75 10 13.13 5.63 13.13 5.63 13.13 5.63 15 7.5 15 7.5 15 7.5 8.75 13.75 8.75 13.75Z" fill="rgb(103,83,163)"/></svg>