<?xml version="1.0" encoding="utf-8"?>
<svg xmlns="http://www.w3.org/2000/svg"
	xmlns:xlink="http://www.w3.org/1999/xlink"
	width="18px" height="20px" viewBox="0 0 18 20">
<path fillRule="evenodd" d="M 16 18C 16 18 16 20 16 20 16 20 14 20 14 20 14 20 14 18 14 18 14 18 13 18 13 18 13 18 12 18 12 18 12 18 12 16 12 16 12 16 14 16 14 16 14 16 14 14 14 14 14 14 16 14 16 14 16 14 16 16 16 16 16 16 18 16 18 16 18 16 18 18 18 18 18 18 16 18 16 18ZM 13 13C 13 13 13 14 13 14 13 14 13 15 13 15 13 15 12 15 12 15 12 15 11 15 11 15 11 15 11 16 11 16 11 16 11 18 11 18 10.01 18.11 9.33 18.23 8.03 18.23 2.81 18.23-0 17.11-0 16.57-0 16.03-0 15.53-0 15.53-0 15.53 0 15.53 0 15.53 0.04 11.98 0.81 11.47 5.87 9.23 4.76 8.01 4.01 5.97 4.01 4.14 4.01 1.28 5.81-0.01 8.03-0.01 10.25-0.01 12.05 1.28 12.05 4.14 12.05 5.97 11.31 8.01 10.19 9.23 13.92 10.88 15.5 11.32 16 13 16 13 15 13 15 13 15 13 13 13 13 13Z" fill="rgb(103,83,163)"/></svg>