<svg xmlns="http://www.w3.org/2000/svg" width="18" height="23" viewBox="0 0 18 23"><path d="M16.32 5.06c-.63.67-1.45 1.28-2.42 1.83.17.39.1.67.1 1.11v6l-.16.01L12 14h-1v3l-1.09.01L8 17v4H2c-1.34 0-2-.64-2-2V8c0-.84.2-1.53.81-2.13L5.33 1.4c.92-.91 2.4-.91 3.32 0l.03.03c.29-.15.58-.27.87-.4C11.18.37 12.8 0 14.19 0h.07c2.26 0 2.99 1.01 3.23 1.6.24.59.41 1.83-1.17 3.46zm-.51-2.77c-.07-.17-.48-.47-1.55-.47h-.05c-1.11 0-2.55.35-3.93.92-.05.02-.1.05-.15.07l1.82 1.8c-.26.13-.55.28-.87.4-.87.37-1.8.64-2.62.79-.34-.44-.88-.74-1.46-.74-.99 0-1.79.84-1.79 1.83 0 1.01.8 1.82 1.79 1.82 1 0 1.8-.81 1.8-1.82v-.13c.87-.15 1.84-.42 2.79-.81 3.2-1.36 4.42-3.19 4.22-3.66zM12 15h2v3l.16.01L17 18v2h-3v3h-2v-2-1H9v-2h3v-3z" fill="#6753A3"/></svg>